#!OML:ASF F:\twosubjects\two\Thursday\Session 1\Rory.ASF
:FULLY-SPECIFIED
:DEGREES
354
root 7.63792 10.5928 12.224 160.73 -11.6389 184.562
lowerback 41.5783 4.14413 0.594624
upperback 13.1541 0.381549 -1.40712
thorax -5.16222 -1.77681 -1.75736
lowerneck -7.79316 -8.81358 -8.83697
upperneck -22.3458 -12.292 16.8905
head -3.69309 -7.67386 6.8092
rclavicle 2.38542e-015 -2.22639e-014
rhumerus -6.10411 28.1713 -69.4586
rradius 77.6691
rwrist 7.51755
rhand -32.1505 37.5082
rfingers 7.12502
rthumb -5.39406 7.59683
lclavicle 2.38542e-015 -2.22639e-014
lhumerus -11.4745 -29.0106 51.5129
lradius 96.8665
lwrist -9.43928
lhand -21.3107 18.3631
lfingers 7.12502
lthumb 5.07431 48.2823
rfemur -58.8339 -4.16657 -9.06072
rtibia 78.8701
rfoot 12.2246 -10.1176
rtoes -10.7474
lfemur -62.4356 24.3959 6.94118
ltibia 71.1488
lfoot 20.5974 4.44831
ltoes 16.6117
355
root 7.63885 10.6012 12.2194 160.864 -11.7786 184.537
lowerback 41.7493 4.02389 0.653348
upperback 12.8988 0.329846 -1.51119
thorax -5.49615 -1.76217 -1.8725
lowerneck -7.40901 -8.819 -8.73903
upperneck -22.4659 -12.3 16.8717
head -3.79672 -7.68719 6.81905
rclavicle -2.14687e-014 3.65764e-014
rhumerus -6.67272 28.3279 -69.7154
rradius 77.8863
rwrist 7.23705
rhand -32.2651 37.5626
rfingers 7.12502
rthumb -5.50465 7.65408
lclavicle -2.14687e-014 3.65764e-014
lhumerus -11.807 -29.2437 51.6164
lradius 96.9616
lwrist -9.57385
lhand -21.2019 18.5354
lfingers 7.12502
lthumb 5.17943 48.4521
rfemur -58.8512 -4.2782 -9.1408
rtibia 78.854
rfoot 12.3023 -9.96783
rtoes -11.3924
lfemur -62.5996 24.4102 6.73332
ltibia 71.0954
lfoot 20.756 4.31891
ltoes 16.6739
356
root 7.64338 10.6118 12.2163 161.103 -11.9252 184.397
lowerback 41.5429 4.04079 0.454081
upperback 12.887 0.312159 -1.47768
thorax -5.45462 -1.76201 -1.72974
lowerneck -7.02273 -8.77939 -8.59093
upperneck -22.9346 -12.3122 16.675
head -4.02972 -7.72843 6.79485
rclavicle -3.33958e-014 1.59028e-014
rhumerus -6.69986 28.5026 -69.5459
rradius 78.0407
rwrist 6.96655
rhand -32.2977 37.9123
rfingers 7.12502
rthumb -5.53614 8.00465
lclavicle -3.33958e-014 1.59028e-014
lhumerus -11.9267 -29.1207 51.8284
lradius 96.947
lwrist -9.68795
lhand -20.9788 18.3784
lfingers 7.12502
lthumb 5.39481 48.2898
rfemur -58.9788 -4.37115 -9.32765
rtibia 78.8395
rfoot 12.5702 -9.57105
rtoes -12.5518
lfemur -62.8045 24.3613 6.45158
ltibia 71.0245
lfoot 20.7733 4.37161
ltoes 15.6574
357
root 7.64961 10.6213 12.2157 161.32 -12.1978 183.491
lowerback 41.6247 4.29725 -0.524493
upperback 12.9564 0.179707 -1.54559
thorax -5.42412 -1.86569 -1.24781
lowerneck -7.25187 -8.73418 -8.72956
upperneck -23.0074 -12.2848 16.5612
head -4.02236 -7.7095 6.77591
rclavicle 7.15625e-015 -6.83819e-014
rhumerus -6.45169 28.8185 -69.2396
rradius 78.1949
rwrist 6.80659
rhand -32.22 38.5091
rfingers 7.12502
rthumb -5.4611 8.59944
lclavicle 7.15625e-015 -6.83819e-014
lhumerus -12.1101 -28.7495 52.0255
lradius 96.949
lwrist -9.77501
lhand -21.0057 18.1851
lfingers 7.12502
lthumb 5.36881 48.0971
rfemur -59.0276 -4.5133 -10.3265
rtibia 78.8344
rfoot 12.4757 -9.64982
rtoes -11.2279
lfemur -62.657 23.9857 5.57877
ltibia 70.9662
lfoot 20.4478 4.8842
ltoes 16.2636
358
root 7.65419 10.6216 12.2086 161.442 -12.336 182.861
lowerback 41.6228 4.53268 -1.18008
upperback 13.1876 0.105815 -1.56437
thorax -5.17825 -1.95923 -0.907449
lowerneck -8.24398 -8.75938 -9.13891
upperneck -22.5567 -12.2796 16.6821
head -3.69242 -7.66123 6.78479
rclavicle -3.18055e-014 3.81667e-014
rhumerus -5.85964 28.964 -68.8466
rradius 78.1342
rwrist 6.70427
rhand -32.0797 38.9327
rfingers 7.12502
rthumb -5.32573 9.01965
lclavicle -3.18055e-014 3.81667e-014
lhumerus -11.9212 -28.3455 52.0694
lradius 96.9096
lwrist -9.77935
lhand -21.2109 18.1127
lfingers 7.12502
lthumb 5.17069 48.0296
rfemur -59.0861 -4.57922 -10.9962
rtibia 78.8607
rfoot 12.3986 -9.7277
rtoes -11.0964
lfemur -62.5524 23.9087 4.95221
ltibia 70.9462
lfoot 20.2894 5.0391
ltoes 17.493
359
root 7.65698 10.6186 12.1982 161.563 -12.2171 183.163
lowerback 41.3481 4.4618 -0.96958
upperback 13.188 0.156435 -1.48889
thorax -5.09432 -1.91764 -0.957355
lowerneck -8.12002 -8.71645 -9.3292
upperneck -22.5947 -12.1931 16.7978
head -3.71049 -7.61239 6.86467
rclavicle 3.33958e-014 4.45278e-014
rhumerus -5.78336 29.0743 -68.8409
rradius 78.0162
rwrist 6.73373
rhand -32.0042 39.4818
rfingers 7.12502
rthumb -5.25278 9.56689
lclavicle 3.33958e-014 4.45278e-014
lhumerus -12.1306 -28.2903 52.1557
lradius 96.9864
lwrist -9.7926
lhand -21.3128 18.0679
lfingers 7.12502
lthumb 5.07235 47.9872
rfemur -59.2916 -4.50906 -10.645
rtibia 78.907
rfoot 12.407 -9.8534
rtoes -11.9605
lfemur -62.7959 24.2025 5.18388
ltibia 70.9539
lfoot 20.3706 4.73774
ltoes 16.3591
360
root 7.65852 10.6197 12.195 161.659 -12.1519 183.413
lowerback 41.1331 4.32785 -0.662116
upperback 13.2768 0.109752 -1.54418
thorax -4.92966 -1.931 -1.1599
lowerneck -8.0691 -8.65346 -9.05704
upperneck -22.974 -12.173 16.7991
head -3.85606 -7.66258 6.8561
rclavicle 8.66701e-014 -6.36111e-015
rhumerus -5.51537 29.0623 -68.9315
rradius 77.9563
rwrist 6.83826
rhand -31.8619 39.6303
rfingers 7.12502
rthumb -5.11539 9.71203
lclavicle 8.66701e-014 -6.36111e-015
lhumerus -12.1503 -28.1282 51.9572
lradius 97.0758
lwrist -9.78007
lhand -21.59 18.1066
lfingers 7.12502
lthumb 4.80462 48.0321
rfemur -59.4195 -4.51038 -10.3598
rtibia 78.9448
rfoot 12.3808 -9.91189
rtoes -11.3
lfemur -62.9795 24.3149 5.39832
ltibia 70.968
lfoot 20.5586 4.63174
ltoes 15.7029
361
root 7.66033 10.6199 12.1939 161.669 -12.0892 183.389
lowerback 41.0488 4.28871 -0.523151
upperback 13.3712 0.075728 -1.69328
thorax -4.79987 -1.949 -1.37898
lowerneck -7.86026 -8.56962 -8.69517
upperneck -23.4514 -12.1398 16.7281
head -4.07138 -7.71474 6.82954
rclavicle -4.77083e-014 3.02153e-014
rhumerus -5.35238 29.0691 -69.0235
rradius 77.9731
rwrist 6.83357
rhand -31.477 39.0855
rfingers 7.12502
rthumb -4.74375 9.1586
lclavicle -4.77083e-014 3.02153e-014
lhumerus -12.043 -28.0229 51.711
lradius 97.0434
lwrist -9.76052
lhand -21.7436 17.9939
lfingers 7.12502
lthumb 4.65632 47.9227
rfemur -59.4735 -4.47544 -10.3351
rtibia 78.9958
rfoot 12.5069 -9.62536
rtoes -11.2697
lfemur -62.9494 24.4384 5.3982
ltibia 70.9799
lfoot 20.7227 4.53577
ltoes 16.2438
362
root 7.66157 10.6138 12.1871 161.877 -12.0057 183.293
lowerback 40.8925 4.36215 -0.641589
upperback 13.2946 0.170727 -1.69177
thorax -4.83823 -1.88827 -1.35217
lowerneck -7.69812 -8.52584 -8.8405
upperneck -23.5373 -12.0636 16.7624
head -4.11985 -7.67 6.88291
rclavicle 1.98785e-014 5.40694e-014
rhumerus -5.51718 29.198 -68.8767
rradius 78.2079
rwrist 6.6193
rhand -31.0917 38.5734
rfingers 7.12502
rthumb -4.37168 8.63852
lclavicle 1.98785e-014 5.40694e-014
lhumerus -12.2695 -28.0652 51.7988
lradius 97.1087
lwrist -9.86416
lhand -21.7466 17.9865
lfingers 7.12502
lthumb 4.65345 47.9154
rfemur -59.7856 -4.49986 -10.4004
rtibia 79.0859
rfoot 12.6362 -9.36156
rtoes -11.8315
lfemur -63.1433 24.7459 5.23764
ltibia 71.0112
lfoot 20.6946 4.25004
ltoes 15.4948
363
root 7.66107 10.6064 12.1793 162.081 -11.9733 183.237
lowerback 41.0139 4.37769 -0.768569
upperback 13.0599 0.21506 -1.63799
thorax -5.13471 -1.84101 -1.24109
lowerneck -7.70354 -8.53368 -9.15547
upperneck -23.3468 -12.0212 16.838
head -4.03726 -7.60793 6.94208
rclavicle -3.02153e-014 5.40694e-014
rhumerus -5.99568 29.3249 -68.8589
rradius 78.6973
rwrist 6.51606
rhand -30.9772 38.4969
rfingers 7.12502
rthumb -4.26117 8.55978
lclavicle -3.02153e-014 5.40694e-014
lhumerus -12.9233 -28.196 52.0703
lradius 97.4827
lwrist -9.88791
lhand -22.0002 18.4001
lfingers 7.12502
lthumb 4.4086 48.3342
rfemur -60.0864 -4.58166 -10.4642
rtibia 79.182
rfoot 12.6251 -9.33473
rtoes -11.816
lfemur -63.4032 25.0195 5.0718
ltibia 71.0646
lfoot 20.6425 4.02712
ltoes 13.9717
364
root 7.66141 10.6054 12.1769 161.996 -11.9765 183.31
lowerback 41.4101 4.28665 -0.627918
upperback 12.9139 0.153045 -1.64859
thorax -5.41179 -1.86154 -1.29464
lowerneck -7.71529 -8.55097 -9.18974
upperneck -23.2153 -12.0339 16.7964
head -3.99459 -7.59624 6.92297
rclavicle -1.74931e-014 -4.6118e-014
rhumerus -6.35243 29.339 -69.046
rradius 79.0281
rwrist 6.62451
rhand -30.989 38.5887
rfingers 7.12502
rthumb -4.27254 8.65177
lclavicle -1.74931e-014 -4.6118e-014
lhumerus -13.3847 -28.1957 52.2004
lradius 97.8062
lwrist -9.71798
lhand -22.0397 18.5106
lfingers 7.12502
lthumb 4.37046 48.4455
rfemur -60.0313 -4.54504 -10.4038
rtibia 79.2339
rfoot 12.5037 -9.42924
rtoes -11.714
lfemur -63.3222 24.9618 5.19326
ltibia 71.0865
lfoot 20.5272 4.10789
ltoes 13.7876
365
root 7.66481 10.6071 12.1798 161.868 -12.074 183.124
lowerback 41.7756 4.26334 -0.595174
upperback 12.9169 0.0641339 -1.80487
thorax -5.51678 -1.91493 -1.4394
lowerneck -8.016 -8.61261 -8.9786
upperneck -22.9279 -12.1189 16.7025
head -3.87039 -7.62695 6.81664
rclavicle -4.6118e-014 2.22639e-014
rhumerus -6.46617 29.2671 -69.1491
rradius 79.0928
rwrist 6.5815
rhand -31.1288 38.6137
rfingers 7.12502
rthumb -4.40752 8.67959
lclavicle -4.6118e-014 2.22639e-014
lhumerus -13.3655 -28.1519 52.0315
lradius 97.8718
lwrist -9.68226
lhand -21.779 18.2747
lfingers 7.12502
lthumb 4.62218 48.2043
rfemur -59.8477 -4.51282 -10.6217
rtibia 79.2461
rfoot 12.3067 -9.69872
rtoes -10.5459
lfemur -63.0911 24.7207 5.09369
ltibia 71.0748
lfoot 20.426 4.31124
ltoes 14.5818
366
root 7.66562 10.6046 12.1797 161.939 -12.1549 182.942
lowerback 41.7649 4.2817 -0.634184
upperback 13.0034 0.0297649 -1.91229
thorax -5.41989 -1.94041 -1.52184
lowerneck -8.40916 -8.64783 -8.75373
upperneck -22.7358 -12.1869 16.5942
head -3.76667 -7.65978 6.7075
rclavicle 3.02153e-014 -1.11319e-014
rhumerus -6.67506 29.2071 -68.9859
rradius 79.4708
rwrist 6.3837
rhand -31.2024 38.5772
rfingers 7.12502
rthumb -4.47855 8.64455
lclavicle 3.02153e-014 -1.11319e-014
lhumerus -13.2236 -28.0859 51.8722
lradius 97.909
lwrist -9.76631
lhand -21.6624 18.2195
lfingers 7.12502
lthumb 4.73479 48.1466
rfemur -59.905 -4.56391 -10.8363
rtibia 79.2658
rfoot 12.2366 -9.93903
rtoes -9.46111
lfemur -63.1855 24.8357 4.78598
ltibia 71.0647
lfoot 20.5159 4.21821
ltoes 14.6465
367
root 7.66258 10.6069 12.177 161.932 -12.1506 182.963
lowerback 41.5911 4.29797 -0.545243
upperback 13.183 0.0483566 -1.89367
thorax -5.16858 -1.94907 -1.56028
lowerneck -8.55209 -8.62543 -8.70708
upperneck -22.7416 -12.1692 16.5385
head -3.757 -7.65378 6.67665
rclavicle -1.98785e-014 3.02153e-014
rhumerus -6.00049 29.1187 -68.8933
rradius 79.0217
rwrist 6.3454
rhand -31.1861 38.7953
rfingers 7.12502
rthumb -4.46286 8.86227
lclavicle -1.98785e-014 3.02153e-014
lhumerus -13.0639 -27.9891 51.8493
lradius 97.9586
lwrist -9.73672
lhand -21.7847 18.475
lfingers 7.12502
lthumb 4.61669 48.4046
rfemur -59.8885 -4.53638 -10.8271
rtibia 79.2628
rfoot 12.4549 -9.53563
rtoes -11.4416
lfemur -63.2267 24.9726 4.72615
ltibia 71.0605
lfoot 20.5472 4.04729
ltoes 14.4833
368
root 7.6621 10.6139 12.1765 161.847 -12.1643 182.94
lowerback 41.5125 4.29761 -0.405904
upperback 13.3316 0.05725 -1.93865
thorax -4.97907 -1.95784 -1.68685
lowerneck -8.41483 -8.61705 -8.65726
upperneck -22.8845 -12.1693 16.5074
head -3.8285 -7.66596 6.67804
rclavicle -4.37326e-014 -6.83819e-014
rhumerus -5.73349 28.9579 -69.0282
rradius 78.8205
rwrist 6.27261
rhand -31.2455 39.3898
rfingers 7.12502
rthumb -4.52023 9.45802
lclavicle -4.37326e-014 -6.83819e-014
lhumerus -12.8494 -28.017 51.7723
lradius 97.9252
lwrist -9.63391
lhand -21.9954 18.6782
lfingers 7.12502
lthumb 4.4132 48.6122
rfemur -59.7453 -4.47037 -10.8585
rtibia 79.2354
rfoot 12.6201 -9.07979
rtoes -13.398
lfemur -63.1017 24.9216 4.72078
ltibia 71.0492
lfoot 20.5054 3.99943
ltoes 14.3288
